# xmcd
# Copyright (C) 1995-1998 Ti Kan
#
# Track frame offsets:
#       150
#       14204
#       35107
#       61986
#       77272
#       96476
#       122169
#       137154
#       157693
#       176505
#       196591
#       212789
#       242323
#
# Disc length: 3237 seconds
#
# Revision: 0
# Processed by: cddbd v1.5.2PL0 Copyright (c) Steve Scherf et al.
# Submitted via: CD-Import v1.0
#
DISCID=a80ca30d
DTITLE=Wilco - Sky Blue Sky
DYEAR=1900
DGENRE=
TTITLE0=Either Way
TTITLE1=You Are My Face
TTITLE2=Impossible Germany
TTITLE3=Sky Blue Sky
TTITLE4=Side With The Seeds
TTITLE5=Shake It Off
TTITLE6=Please Be Patient With Me
TTITLE7=Hate It Here
TTITLE8=Leave Me (Like You Found Me)
TTITLE9=Walken
TTITLE10=What Light
TTITLE11=On And On And On
TTITLE12=Data Track
EXTD=
EXTT0=
EXTT1=
EXTT2=
EXTT3=
EXTT4=
EXTT5=
EXTT6=
EXTT7=
EXTT8=
EXTT9=
EXTT10=
EXTT11=
EXTT12=
PLAYORDER=
